<?xml version="1.0" encoding="UTF-8" standalone="no"?>
<!-- Created with Inkscape (http://www.inkscape.org/) -->
<svg xmlns:rdf="http://www.w3.org/1999/02/22-rdf-syntax-ns#" xmlns="http://www.w3.org/2000/svg" height="744.09" width="744.09" version="1.1" xmlns:cc="http://creativecommons.org/ns#" xmlns:xlink="http://www.w3.org/1999/xlink" xmlns:dc="http://purl.org/dc/elements/1.1/">
 <title>Ministrap Icon</title>
 <defs>
  <linearGradient id="linearGradient4045" y2="379.21" gradientUnits="userSpaceOnUse" x2="723.9" gradientTransform="translate(-1.8548584,302)" y1="379.21" x1="23.902">
   <stop stop-color="#250535" offset="0"/>
   <stop stop-color="#5a136d" offset="1"/>
  </linearGradient>
  <clipPath id="clipPath4222" clipPathUnits="userSpaceOnUse">
   <rect fill-opacity="0.76695" rx="62.877" ry="76.294" height="697.14" width="696.07" stroke-miterlimit="4" y="332.36" x="24.286" stroke-width="0" fill="#F00"/>
  </clipPath>
  <clipPath id="clipPath4260" clipPathUnits="userSpaceOnUse">
   <rect stroke-dasharray="none" rx="65.942" ry="79.734" height="697.1" width="697.1" stroke="#000" stroke-miterlimit="4" y="334.38" x="22.307" stroke-width="3" fill="url(#linearGradient4264)"/>
  </clipPath>
  <linearGradient id="linearGradient4264" y2="379.21" gradientUnits="userSpaceOnUse" x2="723.9" gradientTransform="translate(-3.0449544,303.72079)" y1="379.21" x1="23.902">
   <stop stop-color="#250535" offset="0"/>
   <stop stop-color="#5a136d" offset="1"/>
  </linearGradient>
  <clipPath id="clipPath4300" clipPathUnits="userSpaceOnUse">
   <rect stroke-dasharray="none" rx="65.942" ry="79.734" height="697.1" width="697.1" stroke="#000" stroke-miterlimit="4" y="330.96" x="23.45" stroke-width="3" fill="url(#linearGradient4304)"/>
  </clipPath>
  <linearGradient id="linearGradient4304" y2="379.21" gradientUnits="userSpaceOnUse" x2="723.9" gradientTransform="translate(-1.9021027,300.29222)" y1="379.21" x1="23.902">
   <stop stop-color="#250535" offset="0"/>
   <stop stop-color="#5a136d" offset="1"/>
  </linearGradient>
 </defs>
 <metadata>
  <rdf:RDF>
   <cc:Work rdf:about="">
    <dc:format>image/svg+xml</dc:format>
    <dc:type rdf:resource="http://purl.org/dc/dcmitype/StillImage"/>
    <dc:title>Ministrap Icon</dc:title>
    <cc:license rdf:resource="http://creativecommons.org/licenses/by-nd/3.0/"/>
    <dc:creator>
     <cc:Agent>
      <dc:title>MangoLight - Nicolas Thomas</dc:title>
     </cc:Agent>
    </dc:creator>
    <dc:source>http://www.mangolight.com</dc:source>
   </cc:Work>
   <cc:License rdf:about="http://creativecommons.org/licenses/by-nd/3.0/">
    <cc:permits rdf:resource="http://creativecommons.org/ns#Reproduction"/>
    <cc:permits rdf:resource="http://creativecommons.org/ns#Distribution"/>
    <cc:requires rdf:resource="http://creativecommons.org/ns#Notice"/>
    <cc:requires rdf:resource="http://creativecommons.org/ns#Attribution"/>
   </cc:License>
  </rdf:RDF>
 </metadata>
 <g stroke-miterlimit="4" transform="translate(0,-308.27218)">
  <rect stroke-dasharray="none" rx="65.942" ry="79.734" height="697.1" width="697.1" stroke="#000" y="332.66" x="23.497" stroke-width="3" fill="url(#linearGradient4045)"/>
  <path d="M-62.629,857.37,638.42,259.36,1006.1,497.75,854.59,940.2,632.36,1251.3z" clip-path="url(#clipPath4300)" fill-opacity="0.07692309" stroke-width="0" fill="#FFF"/>
  <path d="M198.8,1375.1,337.42,1018.7,375.13,552.59-40.004,412.26-571.89,1164.7z" clip-path="url(#clipPath4222)" fill-opacity="0.1012146" transform="translate(0,-2)" stroke-width="0" fill="#FFF"/>
  <path d="M55.372,546.63,830.05,47.681,1162.6,333.08,953.29,751.31,691.47,1029.9z" clip-path="url(#clipPath4260)" fill-opacity="0.05668018" stroke-width="0" fill="#FFF"/>
 </g>
 <g style="letter-spacing:0px;word-spacing:0px;" font-family="Sans" font-weight="normal" transform="matrix(4.3329141,0,0,3.557617,-528.45417,-550.26701)" stroke="#000" stroke-miterlimit="4" font-size="40px" font-style="normal" stroke-width="0.76410252" line-height="125%" fill="#FFF">
  <path fill="#FFF" d="m207.97,287.72,28.477-64.477c1.078-2.6718,2.1562-4.8749,3.2344-6.6094,1.078-1.7812,2.2265-3.1874,3.4453-4.2188,1.2186-1.078,2.5311-1.828,3.9375-2.25,1.453-0.42178,3.0936-0.63271,4.9219-0.63282,1.7811,0.00011,3.4686,0.28136,5.0625,0.84375,1.6405,0.5626,3.0702,1.4532,4.2891,2.6719,1.2655,1.2188,2.2499,2.7892,2.9531,4.7109,0.74987,1.922,1.1249,4.2423,1.125,6.9609v77.766c-0.00013,1.3594-0.2345,2.5547-0.70312,3.5859-0.422,0.98438-1.0079,1.8281-1.7578,2.5312-0.75012,0.65625-1.6173,1.1719-2.6016,1.5469-0.93762,0.32813-1.8986,0.49219-2.8828,0.49219-0.98449,0-1.9454-0.16406-2.8828-0.49219-0.89074-0.375-1.7111-0.89062-2.4609-1.5469-0.75011-0.70313-1.3595-1.5469-1.8281-2.5312-0.42198-1.0312-0.63292-2.2266-0.63281-3.5859v-74.812l-31.148,71.508c-0.46883,1.3125-1.1016,2.461-1.8984,3.4453-0.75008,0.98439-1.6173,1.8281-2.6016,2.5312-0.98445,0.65626-2.0391,1.1719-3.1641,1.5469-1.0782,0.32813-2.1798,0.49219-3.3047,0.49219-2.1563,0-4.2188-0.63281-6.1875-1.8984-1.9219-1.3125-3.3751-3.3516-4.3594-6.1172l-31.078-71.086v74.391c-0.00002,1.3594-0.2344,2.5547-0.70312,3.5859-0.4219,0.98438-1.0078,1.8281-1.7578,2.5312-0.75003,0.65625-1.5938,1.1719-2.5312,1.5469-0.93753,0.32813-1.8985,0.49219-2.8828,0.49219-0.98439,0-1.9453-0.16406-2.8828-0.49219-0.93751-0.375-1.7813-0.89062-2.5312-1.5469-0.70314-0.70313-1.2891-1.5469-1.7578-2.5312-0.42189-1.0312-0.63283-2.2266-0.63281-3.5859v-77.766c-0.00002-2.7187,0.35155-5.039,1.0547-6.9609,0.74999-1.9218,1.7578-3.4921,3.0234-4.7109,1.2656-1.2186,2.7187-2.1093,4.3594-2.6719,1.6406-0.56239,3.375-0.84364,5.2031-0.84375,1.8281,0.00011,3.4687,0.23448,4.9219,0.70313,1.4531,0.42197,2.789,1.172,4.0078,2.25,1.2656,1.0314,2.4375,2.4376,3.5156,4.2188,1.0781,1.7813,2.1562,4.0079,3.2344,6.6797l27.984,64.336h0.42188" stroke="#000"/>
 </g>
</svg>
